<svg width="1020" height="747" viewBox="0 0 1020 747" fill="none" xmlns="http://www.w3.org/2000/svg">
<path d="M20 58.3473L205 373.789" stroke="#1D4ED8" stroke-width="32" stroke-linecap="round"/>
<path d="M254.46 49.9682C257.744 41.7647 253.933 32.0479 245.947 28.2652C237.961 24.4825 228.824 28.0663 225.54 36.2699L254.46 49.9682ZM225.54 36.2699L133.54 266.074L162.46 279.773L254.46 49.9682L225.54 36.2699Z" fill="#1D4ED8"/>
<path d="M647.877 440.212C652.452 447.71 662.037 449.618 669.284 444.472C676.532 439.327 678.698 429.076 674.123 421.578L647.877 440.212ZM674.123 421.578L600.123 300.296L573.877 318.93L647.877 440.212L674.123 421.578Z" fill="#1D4ED8"/>
<path d="M646 745.477C654.837 745.477 662 738.313 662 729.477C662 720.64 654.837 713.477 646 713.476L646 745.477ZM646 713.476L411 713.476L411 745.476L646 745.477L646 713.476Z" fill="#1D4ED8"/>
<path d="M662 430.351L870 17.0135" stroke="#1D4ED8" stroke-width="32" stroke-linecap="round"/>
<path d="M737 17.0135L587 309.27" stroke="#1D4ED8" stroke-width="32" stroke-linecap="round"/>
<path d="M240 43.1191L16 50.2905" stroke="#1D4ED8" stroke-width="32" stroke-linecap="round"/>
<path d="M1003 17.0135L736.996 16.8455" stroke="#1D4ED8" stroke-width="32" stroke-linecap="round"/>
<path d="M639 700.551L245 43.1191" stroke="#1D4ED8" stroke-width="32" stroke-linecap="round"/>
<path d="M646 729.845L907 223.682" stroke="#1D4ED8" stroke-width="32" stroke-linecap="round"/>
<path d="M896 246.525L1004 17.0136" stroke="#1D4ED8" stroke-width="32" stroke-linecap="round"/>
<path d="M400.878 738.631C405.366 746.243 414.88 748.315 422.127 743.259C429.374 738.203 431.61 727.933 427.122 720.322L400.878 738.631ZM427.122 720.322L207.122 347.23L180.878 365.54L400.878 738.631L427.122 720.322Z" fill="#1D4ED8"/>
</svg>
