<svg xmlns="http://www.w3.org/2000/svg" version="1.1" xmlns:xlink="http://www.w3.org/1999/xlink" xmlns:svgjs="http://svgjs.dev/svgjs" width="528" height="477"><svg width="528" height="477" viewBox="0 0 528 477" fill="none" xmlns="http://www.w3.org/2000/svg">
<path d="M143.151 48.1438C145.991 39.7763 141.511 30.6902 133.144 27.8494C124.776 25.0085 115.69 29.4887 112.849 37.8562L143.151 48.1438ZM112.849 37.8562L66.7722 173.573L97.0735 183.86L143.151 48.1438L112.849 37.8562Z" fill="#2563EB"></path>
<path d="M323.925 282.227C327.615 290.127 336.237 291.953 343.182 286.304C350.127 280.656 352.766 269.673 349.076 261.773L323.925 282.227ZM349.076 261.773L313.576 185.773L288.424 206.227L323.925 282.227L349.076 261.773Z" fill="#2563EB"></path>
<path d="M330.632 476.64C339.468 476.64 346.632 469.477 346.632 460.64C346.632 451.804 339.468 444.64 330.632 444.64L330.632 476.64ZM330.632 444.64L213.269 444.64L213.269 476.64L330.632 476.64L330.632 444.64Z" fill="#2563EB"></path>
<path d="M338.622 275.929L442 26" stroke="#2563EB" stroke-width="32" stroke-linecap="round"></path>
<path d="M376.079 20.6906L301.166 201.161" stroke="#2563EB" stroke-width="32" stroke-linecap="round"></path>
<path d="M127.869 36.8109L16 41.2393" stroke="#2563EB" stroke-width="32" stroke-linecap="round"></path>
<path d="M511.923 20.6906L379.502 16.1215" stroke="#2563EB" stroke-width="32" stroke-linecap="round"></path>
<path d="M327.136 442.778L128 37" stroke="#2563EB" stroke-width="32" stroke-linecap="round"></path>
<path d="M331 460.69L460.979 148" stroke="#2563EB" stroke-width="32" stroke-linecap="round"></path>
<path d="M455.486 162.415L509 26" stroke="#2563EB" stroke-width="32" stroke-linecap="round"></path>
<path d="M203.581 467.935C207.411 475.898 216.971 479.249 224.935 475.419C232.898 471.589 236.249 462.029 232.419 454.065L203.581 467.935ZM232.419 454.065L30.419 34.0651L1.58099 47.9349L203.581 467.935L232.419 454.065Z" fill="#2563EB"></path>
</svg><style>@media (prefers-color-scheme: light) { :root { filter: none; } }
@media (prefers-color-scheme: dark) { :root { filter: none; } }
</style></svg>