<svg width="2108" height="684" viewBox="0 0 2108 684" fill="none" xmlns="http://www.w3.org/2000/svg">
<rect width="2108" height="684" rx="61" fill="#2563EB"/>
<path d="M314.151 153.144C316.991 144.776 312.511 135.69 304.144 132.849C295.776 130.009 286.69 134.489 283.849 142.856L314.151 153.144ZM283.849 142.856L237.772 278.573L268.073 288.86L314.151 153.144L283.849 142.856Z" fill="white"/>
<path d="M494.925 387.227C498.615 395.127 507.237 396.953 514.182 391.304C521.127 385.656 523.766 374.673 520.076 366.773L494.925 387.227ZM520.076 366.773L484.576 290.773L459.424 311.227L494.925 387.227L520.076 366.773Z" fill="white"/>
<path d="M501.632 581.64C510.468 581.64 517.632 574.477 517.632 565.64C517.632 556.804 510.468 549.64 501.632 549.64L501.632 581.64ZM501.632 549.64L384.269 549.64L384.269 581.64L501.632 581.64L501.632 549.64Z" fill="white"/>
<path d="M509.622 380.929L613 131" stroke="white" stroke-width="32" stroke-linecap="round"/>
<path d="M547.079 125.691L472.166 306.161" stroke="white" stroke-width="32" stroke-linecap="round"/>
<path d="M298.869 141.811L187 146.239" stroke="white" stroke-width="32" stroke-linecap="round"/>
<path d="M682.923 125.691L550.502 121.121" stroke="white" stroke-width="32" stroke-linecap="round"/>
<path d="M498.136 547.778L299 142" stroke="white" stroke-width="32" stroke-linecap="round"/>
<path d="M502 565.69L631.979 253" stroke="white" stroke-width="32" stroke-linecap="round"/>
<path d="M626.486 267.415L680 131" stroke="white" stroke-width="32" stroke-linecap="round"/>
<path d="M374.581 572.935C378.411 580.898 387.971 584.249 395.935 580.419C403.898 576.589 407.249 567.029 403.419 559.065L374.581 572.935ZM403.419 559.065L201.419 139.065L172.581 152.935L374.581 572.935L403.419 559.065Z" fill="white"/>
<path d="M675.611 447.918C665.511 447.918 656.818 445.872 649.531 441.781C642.287 437.648 636.705 431.81 632.784 424.267C628.864 416.682 626.903 407.712 626.903 397.357C626.903 387.257 628.864 378.393 632.784 370.766C636.705 363.138 642.223 357.193 649.339 352.932C656.499 348.67 664.893 346.54 674.524 346.54C681.001 346.54 687.031 347.584 692.614 349.672C698.239 351.717 703.139 354.807 707.315 358.94C711.534 363.074 714.815 368.273 717.159 374.537C719.503 380.759 720.675 388.045 720.675 396.398V403.876H637.77V387.001H695.043C695.043 383.081 694.19 379.608 692.486 376.582C690.781 373.557 688.416 371.192 685.391 369.487C682.408 367.74 678.935 366.866 674.972 366.866C670.838 366.866 667.173 367.825 663.977 369.743C660.824 371.618 658.352 374.153 656.562 377.349C654.773 380.503 653.857 384.018 653.814 387.896V403.94C653.814 408.798 654.709 412.996 656.499 416.533C658.331 420.07 660.909 422.797 664.233 424.714C667.557 426.632 671.499 427.591 676.058 427.591C679.084 427.591 681.854 427.165 684.368 426.312C686.882 425.46 689.034 424.182 690.824 422.477C692.614 420.773 693.977 418.685 694.915 416.213L720.099 417.875C718.821 423.926 716.2 429.21 712.237 433.727C708.317 438.202 703.246 441.696 697.024 444.21C690.845 446.682 683.707 447.918 675.611 447.918ZM765.675 389.239V446H738.445V347.818H764.396V365.141H765.547C767.72 359.43 771.364 354.913 776.477 351.589C781.591 348.223 787.791 346.54 795.078 346.54C801.896 346.54 807.841 348.031 812.912 351.014C817.983 353.997 821.925 358.259 824.737 363.798C827.55 369.295 828.956 375.858 828.956 383.486V446H801.726V388.344C801.768 382.335 800.234 377.648 797.124 374.281C794.013 370.872 789.73 369.168 784.276 369.168C780.611 369.168 777.372 369.956 774.56 371.533C771.79 373.109 769.616 375.411 768.04 378.436C766.506 381.419 765.717 385.02 765.675 389.239ZM902.64 347.818V368.273H843.514V347.818H902.64ZM856.937 324.295H884.167V415.83C884.167 418.344 884.551 420.304 885.318 421.71C886.085 423.074 887.15 424.033 888.514 424.587C889.92 425.141 891.539 425.418 893.372 425.418C894.65 425.418 895.929 425.311 897.207 425.098C898.485 424.842 899.466 424.651 900.147 424.523L904.43 444.786C903.066 445.212 901.149 445.702 898.677 446.256C896.206 446.852 893.201 447.214 889.664 447.342C883.102 447.598 877.349 446.724 872.406 444.722C867.505 442.719 863.691 439.608 860.964 435.389C858.237 431.17 856.895 425.844 856.937 419.409V324.295ZM983.34 404.196V347.818H1010.57V446H984.426V428.166H983.404C981.188 433.919 977.502 438.543 972.346 442.037C967.232 445.531 960.989 447.278 953.617 447.278C947.054 447.278 941.28 445.787 936.294 442.804C931.309 439.821 927.409 435.581 924.597 430.084C921.827 424.587 920.421 418.003 920.378 410.332V347.818H947.608V405.474C947.651 411.27 949.206 415.851 952.275 419.217C955.343 422.584 959.455 424.267 964.611 424.267C967.892 424.267 970.961 423.521 973.816 422.03C976.671 420.496 978.972 418.237 980.719 415.254C982.509 412.271 983.382 408.585 983.34 404.196ZM1032.35 446V347.818H1058.75V364.949H1059.77C1061.56 358.855 1064.57 354.253 1068.79 351.142C1073 347.989 1077.86 346.412 1083.36 346.412C1084.72 346.412 1086.19 346.497 1087.77 346.668C1089.35 346.838 1090.73 347.072 1091.92 347.371V371.533C1090.65 371.149 1088.88 370.808 1086.62 370.51C1084.36 370.212 1082.29 370.062 1080.42 370.062C1076.41 370.062 1072.83 370.936 1069.68 372.683C1066.57 374.388 1064.1 376.774 1062.27 379.842C1060.48 382.911 1059.58 386.447 1059.58 390.453V446H1032.35ZM1146.18 447.918C1136.08 447.918 1127.38 445.872 1120.1 441.781C1112.85 437.648 1107.27 431.81 1103.35 424.267C1099.43 416.682 1097.47 407.712 1097.47 397.357C1097.47 387.257 1099.43 378.393 1103.35 370.766C1107.27 363.138 1112.79 357.193 1119.91 352.932C1127.06 348.67 1135.46 346.54 1145.09 346.54C1151.57 346.54 1157.6 347.584 1163.18 349.672C1168.81 351.717 1173.71 354.807 1177.88 358.94C1182.1 363.074 1185.38 368.273 1187.73 374.537C1190.07 380.759 1191.24 388.045 1191.24 396.398V403.876H1108.34V387.001H1165.61C1165.61 383.081 1164.76 379.608 1163.05 376.582C1161.35 373.557 1158.98 371.192 1155.96 369.487C1152.97 367.74 1149.5 366.866 1145.54 366.866C1141.4 366.866 1137.74 367.825 1134.54 369.743C1131.39 371.618 1128.92 374.153 1127.13 377.349C1125.34 380.503 1124.42 384.018 1124.38 387.896V403.94C1124.38 408.798 1125.28 412.996 1127.06 416.533C1128.9 420.07 1131.48 422.797 1134.8 424.714C1138.12 426.632 1142.06 427.591 1146.62 427.591C1149.65 427.591 1152.42 427.165 1154.93 426.312C1157.45 425.46 1159.6 424.182 1161.39 422.477C1163.18 420.773 1164.54 418.685 1165.48 416.213L1190.67 417.875C1189.39 423.926 1186.77 429.21 1182.8 433.727C1178.88 438.202 1173.81 441.696 1167.59 444.21C1161.41 446.682 1154.27 447.918 1146.18 447.918Z" fill="white"/>
<path d="M1275.16 254.376C1277.41 248.142 1274.12 241.453 1267.81 239.436C1261.49 237.419 1254.55 240.838 1252.3 247.072L1275.16 254.376ZM1252.3 247.072L1221.97 331.144L1244.83 338.448L1275.16 254.376L1252.3 247.072Z" fill="white"/>
<path d="M1391.39 399.985C1394.3 405.857 1400.97 407.302 1406.27 403.214C1411.58 399.125 1413.52 391.051 1410.6 385.18L1391.39 399.985ZM1410.6 385.18L1387.23 338.1L1368.02 352.906L1391.39 399.985L1410.6 385.18Z" fill="white"/>
<path d="M1397.13 521.439C1403.76 521.439 1409.13 516.067 1409.13 509.439C1409.13 502.812 1403.76 497.439 1397.13 497.439L1397.13 521.439ZM1397.13 497.439L1319.87 497.439L1319.87 521.439L1397.13 521.439L1397.13 497.439Z" fill="white"/>
<path d="M1402.39 395.016L1470.45 240.193" stroke="white" stroke-width="24" stroke-linecap="round"/>
<path d="M1427.05 236.904L1377.73 348.7" stroke="white" stroke-width="24" stroke-linecap="round"/>
<path d="M1263.65 246.89L1190 249.633" stroke="white" stroke-width="24" stroke-linecap="round"/>
<path d="M1516.48 236.904L1429.31 234.074" stroke="white" stroke-width="24" stroke-linecap="round"/>
<path d="M1394.83 498.374L1263.73 247.007" stroke="white" stroke-width="24" stroke-linecap="round"/>
<path d="M1397.38 509.47L1482.94 315.768" stroke="white" stroke-width="24" stroke-linecap="round"/>
<path d="M1479.33 324.698L1514.56 240.193" stroke="white" stroke-width="24" stroke-linecap="round"/>
<path d="M1312.05 514.61C1315.07 520.511 1322.41 523.08 1328.44 520.347C1334.48 517.615 1336.93 510.616 1333.92 504.714L1312.05 514.61ZM1333.92 504.714L1200.93 244.537L1179.07 254.433L1312.05 514.61L1333.92 504.714Z" fill="white"/>
<path d="M1513.87 447V348.818H1541.1V447H1513.87ZM1527.55 336.162C1523.5 336.162 1520.02 334.82 1517.13 332.135C1514.27 329.408 1512.84 326.148 1512.84 322.355C1512.84 318.605 1514.27 315.388 1517.13 312.703C1520.02 309.976 1523.5 308.612 1527.55 308.612C1531.59 308.612 1535.05 309.976 1537.9 312.703C1540.8 315.388 1542.25 318.605 1542.25 322.355C1542.25 326.148 1540.8 329.408 1537.9 332.135C1535.05 334.82 1531.59 336.162 1527.55 336.162ZM1563.42 447V316.091H1590.65V365.31H1591.48C1592.68 362.668 1594.4 359.983 1596.66 357.256C1598.96 354.486 1601.94 352.185 1605.61 350.352C1609.32 348.477 1613.92 347.54 1619.42 347.54C1626.57 347.54 1633.18 349.415 1639.23 353.165C1645.28 356.872 1650.12 362.476 1653.74 369.976C1657.36 377.433 1659.17 386.787 1659.17 398.037C1659.17 408.989 1657.41 418.236 1653.87 425.778C1650.37 433.278 1645.6 438.967 1639.55 442.845C1633.54 446.68 1626.81 448.598 1619.35 448.598C1614.07 448.598 1609.57 447.724 1605.86 445.977C1602.2 444.23 1599.19 442.036 1596.85 439.393C1594.51 436.709 1592.72 434.003 1591.48 431.276H1590.27V447H1563.42ZM1590.08 397.909C1590.08 403.747 1590.89 408.839 1592.5 413.186C1594.12 417.533 1596.47 420.92 1599.54 423.349C1602.6 425.736 1606.33 426.929 1610.72 426.929C1615.15 426.929 1618.9 425.714 1621.97 423.286C1625.04 420.814 1627.36 417.405 1628.94 413.058C1630.56 408.669 1631.37 403.619 1631.37 397.909C1631.37 392.241 1630.58 387.256 1629 382.952C1627.43 378.648 1625.1 375.281 1622.04 372.852C1618.97 370.423 1615.2 369.209 1610.72 369.209C1606.29 369.209 1602.54 370.381 1599.47 372.724C1596.45 375.068 1594.12 378.392 1592.5 382.696C1590.89 387 1590.08 392.071 1590.08 397.909ZM1722.09 448.918C1711.99 448.918 1703.29 446.872 1696.01 442.781C1688.76 438.648 1683.18 432.81 1679.26 425.267C1675.34 417.682 1673.38 408.712 1673.38 398.357C1673.38 388.257 1675.34 379.393 1679.26 371.766C1683.18 364.138 1688.7 358.193 1695.82 353.932C1702.98 349.67 1711.37 347.54 1721 347.54C1727.48 347.54 1733.51 348.584 1739.09 350.672C1744.72 352.717 1749.62 355.807 1753.79 359.94C1758.01 364.074 1761.29 369.273 1763.64 375.537C1765.98 381.759 1767.15 389.045 1767.15 397.398V404.876H1684.25V388.001H1741.52C1741.52 384.081 1740.67 380.608 1738.96 377.582C1737.26 374.557 1734.89 372.192 1731.87 370.487C1728.88 368.74 1725.41 367.866 1721.45 367.866C1717.31 367.866 1713.65 368.825 1710.45 370.743C1707.3 372.618 1704.83 375.153 1703.04 378.349C1701.25 381.503 1700.33 385.018 1700.29 388.896V404.94C1700.29 409.798 1701.19 413.996 1702.98 417.533C1704.81 421.07 1707.39 423.797 1710.71 425.714C1714.03 427.632 1717.98 428.591 1722.53 428.591C1725.56 428.591 1728.33 428.165 1730.84 427.312C1733.36 426.46 1735.51 425.182 1737.3 423.477C1739.09 421.773 1740.45 419.685 1741.39 417.213L1766.58 418.875C1765.3 424.926 1762.68 430.21 1758.71 434.727C1754.79 439.202 1749.72 442.696 1743.5 445.21C1737.32 447.682 1730.18 448.918 1722.09 448.918ZM1866.61 376.815L1841.68 378.349C1841.26 376.219 1840.34 374.301 1838.93 372.597C1837.53 370.849 1835.67 369.464 1833.37 368.442C1831.11 367.376 1828.41 366.844 1825.25 366.844C1821.04 366.844 1817.48 367.739 1814.58 369.528C1811.68 371.276 1810.23 373.619 1810.23 376.56C1810.23 378.903 1811.17 380.885 1813.05 382.504C1814.92 384.124 1818.14 385.423 1822.7 386.403L1840.47 389.983C1850.01 391.943 1857.13 395.097 1861.82 399.443C1866.5 403.79 1868.85 409.5 1868.85 416.574C1868.85 423.009 1866.95 428.655 1863.16 433.513C1859.41 438.371 1854.25 442.163 1847.69 444.891C1841.17 447.575 1833.65 448.918 1825.13 448.918C1812.13 448.918 1801.77 446.212 1794.06 440.8C1786.39 435.345 1781.9 427.93 1780.57 418.555L1807.36 417.149C1808.17 421.112 1810.13 424.138 1813.24 426.226C1816.35 428.271 1820.33 429.294 1825.19 429.294C1829.96 429.294 1833.8 428.378 1836.7 426.545C1839.64 424.67 1841.13 422.263 1841.17 419.322C1841.13 416.851 1840.08 414.827 1838.04 413.25C1835.99 411.631 1832.84 410.395 1828.58 409.543L1811.58 406.155C1801.99 404.237 1794.85 400.913 1790.16 396.183C1785.52 391.453 1783.2 385.423 1783.2 378.094C1783.2 371.787 1784.9 366.354 1788.31 361.794C1791.76 357.234 1796.6 353.719 1802.82 351.247C1809.08 348.776 1816.41 347.54 1824.81 347.54C1837.21 347.54 1846.97 350.161 1854.08 355.402C1861.24 360.643 1865.42 367.781 1866.61 376.815Z" fill="white"/>
</svg>
